<svg width="25" height="24" viewBox="0 0 25 24" fill="none" xmlns="http://www.w3.org/2000/svg">
<path d="M9.5 17V18C9.5 18.7956 9.81607 19.5587 10.3787 20.1213C10.9413 20.6839 11.7044 21 12.5 21C13.2956 21 14.0587 20.6839 14.6213 20.1213C15.1839 19.5587 15.5 18.7956 15.5 18V17M10.5 5C10.5 4.46957 10.7107 3.96086 11.0858 3.58579C11.4609 3.21071 11.9696 3 12.5 3C13.0304 3 13.5391 3.21071 13.9142 3.58579C14.2893 3.96086 14.5 4.46957 14.5 5C15.6484 5.54303 16.6274 6.38833 17.3321 7.4453C18.0367 8.50227 18.4404 9.73107 18.5 11V14C18.5753 14.6217 18.7954 15.2171 19.1428 15.7381C19.4902 16.2592 19.9551 16.6914 20.5 17H4.5C5.04494 16.6914 5.50981 16.2592 5.85719 15.7381C6.20457 15.2171 6.42474 14.6217 6.5 14V11C6.55956 9.73107 6.9633 8.50227 7.66795 7.4453C8.3726 6.38833 9.35159 5.54303 10.5 5Z" stroke="#B3B3B3" stroke-width="1.3" stroke-linecap="round" stroke-linejoin="round"/>
</svg>
